#!OML:ASF F:\VICON\USERDATA\INSTALL\Justin_Nancy\Justin_Nancy.ASF
:FULLY-SPECIFIED
:DEGREES
64
root 5.20283 16.1681 1.66953 -16.9439 -64.3951 30.6499
lowerback 17.7764 -2.61858 -8.30871
upperback 2.82954 -5.422 -3.24116
thorax -6.44559 -2.54915 2.43818
lowerneck -12.1225 -0.745429 -12.8495
upperneck 11.6345 -0.214173 10.7474
head 5.50581 0.0911162 5.5318
rclavicle -5.54609e-014 -7.25564e-015
rhumerus -68.2731 8.54562 -84.4952
rradius 114.151
rwrist -0.919563
rhand -18.7755 28.1233
rfingers 7.12502
rthumb 7.5218 -1.72293
lclavicle -5.54609e-014 -7.25564e-015
lhumerus -34.5569 -7.95476 89.2715
lradius 108.23
lwrist 17.6626
lhand -17.4589 3.07162
lfingers 7.12502
lthumb 8.79256 32.8685
rfemur -31.1849 -12.3264 43.8615
rtibia 35.8612
rfoot -7.31141 -4.96667
rtoes 29.9685
lfemur -10.5698 0.0166745 -12.7442
ltibia 62.5404
lfoot 8.11913 -7.53948
ltoes -15.8669
65
root 4.92898 16.1734 2.02577 -14.3328 -63.4455 29.0302
lowerback 16.1582 -3.36655 -6.537
upperback 2.52135 -5.88638 -2.86336
thorax -5.98743 -2.81319 1.853
lowerneck -11.8282 -0.97745 -12.8694
upperneck 11.6802 -0.487746 10.2002
head 5.5051 -0.0888186 5.33089
rclavicle -3.598e-014 -4.68138e-014
rhumerus -67.5767 8.79094 -82.8083
rradius 115.293
rwrist -0.761397
rhand -19.865 27.6835
rfingers 7.12502
rthumb 6.47011 -2.19766
lclavicle -3.598e-014 -4.68138e-014
lhumerus -36.0523 -7.20403 89.6873
lradius 106.787
lwrist 17.1069
lhand -17.6211 3.5554
lfingers 7.12502
lthumb 8.63603 33.3588
rfemur -31.2302 -12.363 43.5429
rtibia 35.6662
rfoot -9.21711 -5.84964
rtoes 28.8392
lfemur -13.9147 -1.81052 -12.0997
ltibia 65.7173
lfoot 7.09514 -4.52102
ltoes -14.2865
66
root 4.65371 16.1593 2.33985 -13.7179 -64.3031 28.6435
lowerback 15.4537 -3.17798 -6.04111
upperback 2.37433 -5.4558 -2.38287
thorax -5.78611 -2.60973 1.95821
lowerneck -11.576 -1.22512 -12.8017
upperneck 11.5532 -0.806423 9.81109
head 5.4616 -0.271856 5.16173
rclavicle 1.26825e-013 2.24627e-014
rhumerus -66.7102 9.35021 -81.4317
rradius 116.633
rwrist -1.94683
rhand -20.854 26.9175
rfingers 7.12502
rthumb 5.51533 -2.99077
lclavicle 1.26825e-013 2.24627e-014
lhumerus -37.5668 -6.88086 89.774
lradius 105.402
lwrist 17.3533
lhand -18.9874 4.38703
lfingers 7.12502
lthumb 7.31735 34.2405
rfemur -29.6598 -11.194 43.0768
rtibia 35.3537
rfoot -11.1069 -8.73421
rtoes 22.8239
lfemur -15.6449 -1.9821 -11.2707
ltibia 68.4192
lfoot 5.89022 -1.77319
ltoes -12.8412
67
root 4.38465 16.1364 2.61974 -13.8463 -66.0374 28.3454
lowerback 15.5656 -2.63039 -5.98746
upperback 2.44334 -4.69029 -1.85251
thorax -5.78407 -2.23253 2.34913
lowerneck -11.4794 -1.45245 -12.8456
upperneck 11.3324 -1.09053 9.68871
head 5.4111 -0.419041 5.10171
rclavicle -1.60022e-014 2.34566e-014
rhumerus -65.2514 9.79854 -80.2823
rradius 117.628
rwrist -3.21651
rhand -21.5105 26.5869
rfingers 7.12502
rthumb 4.88139 -3.33684
lclavicle -1.60022e-014 2.34566e-014
lhumerus -38.9556 -6.59006 89.6114
lradius 104.062
lwrist 17.7832
lhand -19.8808 5.19297
lfingers 7.12502
lthumb 6.45493 35.0746
rfemur -27.2317 -9.54887 42.7477
rtibia 35.2102
rfoot -12.6834 -9.07029
rtoes 24.1306
lfemur -16.3374 -1.35002 -9.97497
ltibia 70.6319
lfoot 4.52201 0.627435
ltoes -10.8618
68
root 4.13179 16.1069 2.89538 -12.9787 -67.1085 27.0932
lowerback 15.7423 -2.38504 -5.57369
upperback 2.55113 -4.27029 -1.37205
thorax -5.78944 -2.03238 2.55356
lowerneck -11.6154 -1.65851 -12.4834
upperneck 11.2647 -1.37316 9.40355
head 5.44313 -0.556197 4.92473
rclavicle 4.21423e-014 1.59028e-014
rhumerus -62.9582 9.09289 -78.9226
rradius 117.705
rwrist -3.33472
rhand -21.3097 26.8326
rfingers 7.12502
rthumb 5.07534 -3.08663
lclavicle 4.21423e-014 1.59028e-014
lhumerus -40.3656 -6.27342 89.229
lradius 102.745
lwrist 18.0229
lhand -20.0245 5.84653
lfingers 7.12502
lthumb 6.31615 35.7324
rfemur -25.2475 -8.72132 42.7644
rtibia 35.129
rfoot -14.5258 -9.73612
rtoes 24.8327
lfemur -17.5144 -1.13574 -8.23662
ltibia 72.5405
lfoot 3.04598 1.95663
ltoes -9.23787
